<svg width="26" height="26" viewBox="0 0 26 26" fill="none" xmlns="http://www.w3.org/2000/svg">
<path d="M13 26C20.1799 26 26 20.1799 26 13C26 5.8201 20.1799 0 13 0C5.8201 0 0 5.8201 0 13C0 20.1799 5.8201 26 13 26Z" fill="#0E172C"/>
<path fill-rule="evenodd" clip-rule="evenodd" d="M19.5907 9.50496C19.9812 9.11443 19.9812 8.48127 19.5907 8.09074C19.2001 7.70022 18.567 7.70022 18.1764 8.09074L10.479 15.7882L7.82429 13.1335C7.43377 12.7429 6.80061 12.7429 6.41008 13.1335C6.01956 13.524 6.01956 14.1572 6.41008 14.5477L9.7719 17.9095C10.1624 18.3 10.7956 18.3 11.1861 17.9095L19.5907 9.50496Z" fill="#FFFFFE"/>
</svg>
